<svg xmlns="http://www.w3.org/2000/svg" width="1200" height="800" viewBox="0 0 1200 800" role="img" aria-label="Abstract placeholder image"><defs><linearGradient id="g" x1="0" y1="0" x2="0.3" y2="1"><stop offset="0" stop-color="#eceae5"/><stop offset="1" stop-color="#d5d2cb"/></linearGradient><radialGradient id="l" cx="0.72" cy="0.18" r="0.7"><stop offset="0" stop-color="#ffffff" stop-opacity="0.55"/><stop offset="1" stop-color="#ffffff" stop-opacity="0"/></radialGradient></defs><rect width="1200" height="800" fill="url(#g)"/><g fill="#a8a49b" fill-opacity="0.45"><rect x="180" y="180" width="380" height="480" rx="10"/><rect x="620" y="230" width="300" height="200" rx="12"/><circle cx="800" cy="580" r="70"/></g><g fill="none" stroke="#ffffff" stroke-opacity="0.85" stroke-width="3" stroke-linecap="round"><path d="M180 180 h380 v480 h-380 Z M620 230 h300 v200 h-300 Z M800 580 m-70 0 a70 70 0 1 0 140 0 a70 70 0 1 0 -140 0 M870 545 h60 a30 30 0 0 1 0 60 h-60"/><path stroke-opacity="0.5" d="M230 250 H510 M230 296 H510 M230 342 H510 M230 388 H510 M230 434 H510 M230 480 H510 M230 526 H510 M230 572 H510 "/></g><rect width="1200" height="800" fill="url(#l)"/></svg>