<svg xmlns="http://www.w3.org/2000/svg" width="1200" height="800" viewBox="0 0 1200 800" role="img" aria-label="Abstract placeholder image"><defs><linearGradient id="g" x1="0" y1="0" x2="0.3" y2="1"><stop offset="0" stop-color="#ece7e6"/><stop offset="1" stop-color="#d6cac8"/></linearGradient><radialGradient id="l" cx="0.72" cy="0.18" r="0.7"><stop offset="0" stop-color="#ffffff" stop-opacity="0.55"/><stop offset="1" stop-color="#ffffff" stop-opacity="0"/></radialGradient></defs><rect width="1200" height="800" fill="url(#g)"/><path d="M300 640 a260 260 0 0 1 520 0 Z" fill="#ab9793" fill-opacity="0.4"/><g fill="none" stroke="#ffffff" stroke-opacity="0.85" stroke-width="3" stroke-linecap="round"><path d="M300 640 a260 260 0 0 1 520 0 M340 640 a220 220 0 0 1 440 0 M380 640 a180 180 0 0 1 360 0 M420 640 a140 140 0 0 1 280 0 M460 640 a100 100 0 0 1 200 0 "/><path stroke-opacity="0.5" d="M240 700 H960 M300 760 H900"/></g><rect width="1200" height="800" fill="url(#l)"/></svg>